# Alias OBJ Model File
# Exported from SketchUp, (c) 2000-2012 Trimble Navigation Limited
# File units = inches

mtllib hat_rice.mtl

g Mesh1 Untitled__6_1 Model

usemtl _4
v -30.1268 65.1274 -28.6976
vt 0.887258 1.06026
vn 0 1 -0
v -30.2304 65.1274 -28.7989
vt 0.88674 1.06102
v -30.3567 65.1274 -28.8699
vt 0.886109 1.06155
v -30.497 65.1274 -28.9058
vt 0.885407 1.06182
v -30.6419 65.1274 -28.9042
vt 0.884683 1.06181
v -30.7814 65.1274 -28.8651
vt 0.883985 1.06152
v -30.9061 65.1274 -28.7912
vt 0.883362 1.06096
v -31.0074 65.1274 -28.6876
vt 0.882855 1.06018
v -31.0784 65.1274 -28.5613
vt 0.8825 1.05923
v -31.1143 65.1274 -28.4209
vt 0.882321 1.05818
v -31.1126 65.1274 -28.2761
vt 0.882329 1.05709
v -31.0736 65.1274 -28.1365
vt 0.882524 1.05604
v -30.9997 65.1274 -28.0119
vt 0.882894 1.05511
v -30.8961 65.1274 -27.9106
vt 0.883412 1.05434
v -30.7698 65.1274 -27.8396
vt 0.884043 1.05381
v -30.6294 65.1274 -27.8037
vt 0.884745 1.05354
v -30.4845 65.1274 -27.8053
vt 0.885469 1.05355
v -30.345 65.1274 -27.8444
vt 0.886167 1.05385
v -30.2204 65.1274 -27.9183
vt 0.88679 1.0544
v -30.1191 65.1274 -28.0219
vt 0.887297 1.05518
v -30.0481 65.1274 -28.1482
vt 0.887652 1.05613
v -30.0122 65.1274 -28.2886
vt 0.887831 1.05718
v -30.0138 65.1274 -28.4334
vt 0.887823 1.05827
v -30.0529 65.1274 -28.573
vt 0.887628 1.05932
f 1/1/1 2/2/1 3/3/1 4/4/1 5/5/1 6/6/1 7/7/1 8/8/1 9/9/1 10/10/1 11/11/1 12/12/1 13/13/1 14/14/1 15/15/1 16/16/1 17/17/1 18/18/1 19/19/1 20/20/1 21/21/1 22/22/1 23/23/1 24/24/1 

vt -0.140543 -1.07021
vn 0.354332 0.806716 -0.472925
vt -0.141268 -1.07021
vn 0.463732 0.807579 -0.364374
v 40.5082 0.127435 -82.8643
vt -0.204499 -1.8929
v 23.8124 0.127435 -99.1852
vt -0.0877595 -1.8929
f 2/25/2 1/26/3 25/27/3 26/28/2 

vt 0.154654 -1.07012
vt 0.15393 -1.07012
vn 0.541191 0.808411 -0.231482
v 52.411 0.127435 -62.7784
vt 0.0908612 -1.89445
vt 0.207601 -1.89445
f 1/29/3 24/30/4 27/31/4 25/32/3 

vt 0.439337 -0.977377
vt 0.438613 -0.977377
vn 0.581651 0.809155 -0.0833691
v 58.7096 0.127435 -40.2961
vt 0.376051 -1.80323
vt 0.492791 -1.80323
f 24/33/4 23/34/5 28/35/5 27/36/4 

vt 0.694104 -0.798062
vt 0.69338 -0.798062
vn 0.582576 0.809763 0.0699283
v 58.9748 0.127435 -16.9498
vt 0.631637 -1.62524
vt 0.748376 -1.62524
f 23/37/5 22/38/6 29/39/6 28/40/5 

vt 0.90087 -0.544291
vn 0.544067 0.810194 0.218122
v 53.1884 0.127435 5.66971
vt 0.840199 -1.37249
vt 0.956938 -1.37249
vt 0.901594 -0.544291
f 21/41/7 30/42/7 29/43/6 22/44/6 

vt 1.04694 -0.2334
vn 0.46881 0.810422 0.351331
v 41.7449 0.127435 26.0208
vt 0.987525 -1.06225
vt 1.10426 -1.06225
vt 1.04767 -0.2334
f 20/45/8 31/46/8 30/47/7 21/48/7 

vt 1.12164 0.113247
vn 0.361881 0.810432 0.460698
v 25.424 0.127435 42.7167
vt 1.06358 -0.715838
vt 1.18032 -0.715838
vt 1.12237 0.113247
f 19/49/9 32/50/9 31/51/8 20/52/8 

vt 1.11988 0.47176
vn 0.230408 0.810222 0.538936
v 5.33805 0.127435 54.6195
vt 1.06317 -0.357127
vt 1.17991 -0.357127
vt 1.1206 0.47176
f 18/53/10 33/54/10 32/55/9 19/56/9 

vt 1.04178 0.81742
vn 0.0831344 0.809807 0.580776
v -17.1442 0.127435 60.9181
vt 0.986328 -0.0108512
vt 1.10307 -0.0108512
vt 1.0425 0.81742
f 17/57/11 34/58/11 33/59/10 18/60/10 

v -40.4906 0.127435 61.1833
vt 0.838295 0.29916
vn -0.0701263 0.809214 0.583314
vt 0.955034 0.29916
vt 0.893375 1.12644
vt 0.89265 1.12644
f 35/61/12 34/62/11 17/63/11 16/64/12 

v -63.11 0.127435 55.3969
vt 0.629155 0.551665
vn -0.219095 0.80848 0.546222
vt 0.745894 0.551665
vt 0.683392 1.37764
vt 0.682668 1.37764
f 36/65/13 35/66/12 16/67/12 15/68/13 

v -83.4612 0.127435 43.9534
vt 0.373161 0.729485
vn -0.353686 0.807653 0.471807
vt 0.489901 0.729485
vt 0.426862 1.55394
vt 0.426138 1.55394
f 37/69/14 36/70/13 15/71/13 14/72/14 

v -100.157 0.127435 27.6325
vt 0.0877595 0.820676
vn -0.464676 0.806791 0.364918
vt 0.204499 0.820676
vt 0.141268 1.6435
vt 0.140543 1.6435
f 38/73/15 37/74/14 14/75/14 13/76/15 

v -112.06 0.127435 7.54653
vt -0.207601 0.819292
vn -0.544342 0.80595 0.232672
vt -0.0908612 0.819292
vt -0.15393 1.64048
vt -0.154654 1.64048
f 39/77/16 38/78/15 13/79/15 12/80/16 

v -118.358 0.127435 -14.9357
vt -0.492791 0.725721
vn -0.587037 0.805189 0.0840145
vt -0.376051 0.725721
vt -0.438613 1.54538
vt -0.439337 1.54538
f 40/81/17 39/82/16 12/83/16 11/84/17 

v -118.624 0.127435 -38.2821
vt -0.748376 0.546582
vn -0.589625 0.804562 -0.0708718
vt -0.631637 0.546582
vt -0.69338 1.36493
vt -0.694104 1.36493
f 41/85/18 40/86/17 11/87/17 10/88/18 

vt -0.840199 0.294203
vt -0.90087 1.11153
vt -0.901594 1.11153
vn -0.551761 0.804113 -0.221273
v -112.837 0.127435 -60.9016
vt -0.956938 0.294203
f 41/89/18 10/90/18 9/91/19 42/92/19 

vt -0.987525 -0.0142494
vt -1.04694 0.802434
vt -1.04767 0.802434
vn -0.47596 0.803875 -0.356716
v -101.394 0.127435 -81.2527
vt -1.10426 -0.0142494
f 42/93/19 9/94/19 8/95/20 43/96/20 

vt -1.06358 -0.357935
vt -1.12164 0.458515
vt -1.12237 0.458515
vn -0.367441 0.803865 -0.467747
v -85.0728 0.127435 -97.9485
vt -1.18032 -0.357935
f 43/97/20 8/98/20 7/99/21 44/100/21 

vt -1.06317 -0.713711
vt -1.11988 0.102935
vt -1.1206 0.102935
vn -0.233761 0.804084 -0.54663
v -64.9869 0.127435 -109.851
vt -1.17991 -0.713711
f 44/101/21 7/102/21 6/103/22 45/104/22 

vt -0.986328 -1.05763
vt -1.04178 -0.240374
vt -1.0425 -0.240374
vn -0.0842528 0.804515 -0.587926
v -42.5046 0.127435 -116.15
vt -1.10307 -1.05763
f 45/105/22 6/106/22 5/107/23 46/108/23 

vt -0.838295 -1.3665
vt -0.89265 -0.548253
vt -0.893375 -0.548253
vn 0.0706708 0.805129 -0.588875
v -19.1583 0.127435 -116.415
vt -0.955034 -1.3665
f 46/109/23 5/110/23 4/111/24 47/112/24 

vt -0.682668 -0.799833
vt -0.683392 -0.799833
vn 0.220285 0.80588 -0.549575
v 3.46123 0.127435 -110.629
vt -0.745894 -1.61937
vt -0.629155 -1.61937
f 4/113/24 3/114/25 48/115/25 47/116/24 

vt -0.426138 -0.977927
vt -0.426862 -0.977927
vt -0.489901 -1.79898
vt -0.373161 -1.79898
f 3/117/25 2/118/2 26/119/2 48/120/25 

